<?xml version="1.0" encoding="UTF-8"?>
<!-- Ícone oficial do BATY CAR APP: círculo azul, B branco, carro navy -->
<svg xmlns="http://www.w3.org/2000/svg" width="512" height="512" viewBox="0 0 512 512">
  <!-- Fundo circular azul com borda navy (mais espessa, como na arte enviada) -->
  <circle cx="256" cy="256" r="230" fill="#2f86d3" stroke="#0f2746" stroke-width="32"/>

  <!-- Letra B branca, grande e centralizada na metade superior -->
  <text x="256" y="176" font-family="Inter, Arial, sans-serif" font-size="210" font-weight="800" text-anchor="middle" fill="#ffffff">B</text>

  <!-- Carro navy simplificado, com faróis e grade brancos -->
  <g fill="#0f2746" stroke="none" transform="translate(0,16)">
    <!-- Base do carro -->
    <path d="M148 330h216c14 0 26 12 26 26v36c0 8-6 14-14 14H136c-8 0-14-6-14-14v-36c0-14 12-26 26-26z"/>
    <!-- Curva do capô/parabrisas -->
    <path d="M172 310c24-26 50-39 84-39s60 13 84 39" fill="none" stroke="#0f2746" stroke-width="16" stroke-linecap="round"/>
    <!-- Rodas -->
    <circle cx="192" cy="394" r="22"/>
    <circle cx="320" cy="394" r="22"/>
    <!-- Faróis -->
    <circle cx="192" cy="378" r="12" fill="#ffffff"/>
    <circle cx="320" cy="378" r="12" fill="#ffffff"/>
    <!-- Grade frontal -->
    <rect x="226" y="370" width="60" height="12" rx="6" fill="#ffffff"/>
    <!-- Parabrisa branco -->
    <rect x="204" y="334" width="104" height="32" rx="10" fill="#ffffff"/>
  </g>
</svg>